HIERARCHY
ROOT Hips
{
	OFFSET 0.000000 0.000000 0.000000 
	CHANNELS 6 Xposition Yposition Zposition Zrotation Yrotation Xrotation
	JOINT LeftUpLeg
	{
		OFFSET 1.363060 -1.794630 0.839290 
		CHANNELS 3 Zrotation Yrotation Xrotation
		JOINT LeftLeg
		{
			OFFSET 2.448110 -6.726130 0.000000 
			CHANNELS 3 Zrotation Yrotation Xrotation
			JOINT LeftFoot
			{
				OFFSET 2.562200 -7.039590 0.000000 
				CHANNELS 3 Zrotation Yrotation Xrotation
				JOINT LeftToeBase
				{
					OFFSET 0.157640 -0.433110 2.322550 
					CHANNELS 3 Zrotation Yrotation Xrotation
					End Site
					{
						OFFSET 0.000000 0.000000 0.000000 
					}
				}
			}
		}
	}
	JOINT RightUpLeg
	{
		OFFSET -1.305520 -1.794630 0.839290 
		CHANNELS 3 Zrotation Yrotation Xrotation
		JOINT RightLeg
		{
			OFFSET -2.542530 -6.985550 0.000000 
			CHANNELS 3 Zrotation Yrotation Xrotation
			JOINT RightFoot
			{
				OFFSET -2.568260 -7.056230 0.000000 
				CHANNELS 3 Zrotation Yrotation Xrotation
				JOINT RightToeBase
				{
					OFFSET -0.164730 -0.452590 2.363150 
					CHANNELS 3 Zrotation Yrotation Xrotation
					End Site
					{
						OFFSET 0.000000 0.000000 0.000000 
					}
				}
			}
		}
	}
	JOINT Spine
	{
		OFFSET 0.028270 2.035590 -0.193380 
		CHANNELS 3 Zrotation Yrotation Xrotation
		JOINT Spine1
		{
			OFFSET 0.056720 2.048850 -0.042750 
			CHANNELS 3 Zrotation Yrotation Xrotation
			JOINT Neck1
			{
				OFFSET -0.054170 1.746240 0.172020 
				CHANNELS 3 Zrotation Yrotation Xrotation
				JOINT Head
				{
					OFFSET 0.104070 1.761360 -0.123970 
					CHANNELS 3 Zrotation Yrotation Xrotation
					End Site
					{
						OFFSET 0.000000 0.000000 0.000000 
					}
				}
			}
			JOINT LeftArm
			{
				OFFSET 3.362410 1.200890 -0.311210 
				CHANNELS 3 Zrotation Yrotation Xrotation
				JOINT LeftForeArm
				{
					OFFSET 4.983000 -0.000000 -0.000000 
					CHANNELS 3 Zrotation Yrotation Xrotation
					JOINT LeftHand
					{
						OFFSET 3.483560 -0.000000 -0.000000 
						CHANNELS 3 Zrotation Yrotation Xrotation
						JOINT LeftHandIndex1
						{
							OFFSET 0.715260 -0.000000 -0.000000 
							CHANNELS 3 Zrotation Yrotation Xrotation
							End Site
							{
								OFFSET 0.000000 0.000000 0.000000 
							}
						}
					}
				}
			}
			JOINT RightArm
			{
				OFFSET -3.136600 1.374050 -0.404650 
				CHANNELS 3 Zrotation Yrotation Xrotation
				JOINT RightForeArm
				{
					OFFSET -5.241900 -0.000000 -0.000000 
					CHANNELS 3 Zrotation Yrotation Xrotation
					JOINT RightHand
					{
						OFFSET -3.444170 -0.000000 -0.000000 
						CHANNELS 3 Zrotation Yrotation Xrotation
						JOINT RightHandIndex1
						{
							OFFSET -0.622530 -0.000000 -0.000000 
							CHANNELS 3 Zrotation Yrotation Xrotation
							End Site
							{
								OFFSET 0.000000 0.000000 0.000000 
							}
						}
					}
				}
			}
		}
	}
}
MOTION
Frames: 7
Frame Time: 0.041667
5.555400 27.493900 1.438000 131.533000 83.252400 150.035000 -13.092100 -20.279100 -36.429600 5.839100 14.270600 44.332700 -0.388700 -11.919600 -0.597500 0.463200 -4.365500 -12.107300 15.710700 23.020700 -19.794300 -1.040500 -6.487500 18.205600 1.739400 -22.585600 -9.650300 -0.016200 -0.821500 2.257700 -1.054700 0.153000 -2.961500 2.557000 0.100200 3.401900 5.348500 -0.344200 -10.909600 2.282800 -0.266200 -4.390500 -84.160300 5.744400 23.939200 56.153100 -55.194500 -31.160700 0.000000 0.000000 9.612400 -7.125000 0.000000 0.000000 81.489200 -6.784500 47.666600 -50.698300 53.273300 -26.732800 0.000000 0.000000 -10.625000 7.125000 0.000000 0.000000 
5.548500 27.495100 1.438200 130.575000 83.444200 148.996000 -13.077700 -20.042600 -36.523200 5.887600 14.318500 44.528800 -0.399300 -12.037100 -0.507500 0.452200 -4.314300 -11.962500 15.861400 22.667900 -19.824700 -1.033200 -6.465200 18.140200 1.645500 -22.012400 -9.470100 -0.012000 -0.706300 1.941000 -1.045200 0.255800 -2.944400 2.574900 0.152000 3.319700 5.490300 -0.286900 -11.644600 2.095800 -0.272900 -4.227300 -84.577400 6.607400 23.693200 54.767700 -54.746300 -30.026200 0.000000 0.000000 9.294300 -7.125000 0.000000 0.000000 81.733500 -6.933800 47.501300 -49.523800 52.801600 -25.794400 0.000000 0.000000 -10.799900 7.125000 0.000000 0.000000 
5.546900 27.494900 1.441400 131.211000 83.403100 149.646000 -13.004400 -20.024000 -36.728400 5.937300 14.367300 44.729400 -0.416000 -12.197400 -0.307400 0.448000 -4.294200 -11.905800 15.858200 22.841800 -19.732700 -1.023300 -6.435100 18.052100 1.675000 -22.194600 -9.532900 -0.023100 -0.981500 2.698000 -1.019900 0.220100 -2.911600 2.609800 0.131200 3.378800 5.449000 -0.279200 -12.266900 2.076500 -0.279900 -4.501400 -84.981700 7.356900 23.410500 53.290100 -54.239200 -28.823300 0.000000 0.000000 8.836800 -7.125000 0.000000 0.000000 81.957900 -7.039800 47.550500 -48.147800 52.220600 -24.702500 0.000000 0.000000 -10.300600 7.125000 0.000000 0.000000 
5.540900 27.497000 1.444700 131.391000 83.559000 149.930000 -12.804800 -19.907400 -37.053200 5.986600 14.415400 44.927900 -0.427900 -12.292000 -0.113300 0.425400 -4.186100 -11.600800 15.949400 22.846800 -19.864100 -1.016100 -6.413200 17.988200 1.645900 -22.019900 -9.591700 -0.039200 -1.278700 3.516000 -1.056000 0.262800 -3.024300 2.477400 0.162600 3.193000 5.442300 -0.285800 -12.562100 2.057200 -0.292800 -4.632300 -85.305600 8.198600 22.929700 51.670900 -53.647600 -27.514300 0.000000 0.000000 8.602400 -7.125000 0.000000 0.000000 82.390500 -7.312600 47.344900 -46.893000 51.662900 -23.714500 0.000000 0.000000 -10.168500 7.125000 0.000000 0.000000 
5.531600 27.498600 1.446100 130.756000 83.758300 149.318000 -12.688800 -19.777900 -37.263200 6.037700 14.464800 45.133000 -0.431500 -12.281200 0.053500 0.405100 -4.086200 -11.319300 16.078400 22.572400 -20.030700 -1.011200 -6.398100 17.943900 1.571800 -21.554700 -9.459400 -0.034900 -1.205100 3.313200 -0.951600 0.342600 -2.742700 2.630800 0.178300 3.623900 5.354300 -0.333500 -12.775300 2.035200 -0.303100 -4.638100 -85.920700 8.368900 22.256800 49.898500 -52.954500 -26.093100 0.000000 0.000000 8.599900 -7.125000 0.000000 0.000000 82.475000 -6.894700 47.130100 -45.472500 50.997900 -22.605400 0.000000 0.000000 -10.389000 7.125000 0.000000 0.000000 
5.524300 27.497400 1.444100 131.517000 83.591700 149.995000 -12.722500 -19.925100 -37.330600 6.090300 14.515300 45.343200 -0.442600 -12.347000 0.309100 0.396200 -4.041300 -11.193000 16.049200 22.448000 -19.956700 -1.005300 -6.380100 17.891500 1.579900 -21.604700 -9.442600 -0.034800 -1.203700 3.309400 -1.076400 0.239000 -2.984600 2.412600 0.152900 3.021700 5.396100 -0.381800 -12.550700 2.028700 -0.333000 -4.553600 -86.138800 9.464200 21.745900 48.543200 -52.390800 -25.015400 0.000000 0.000000 8.553100 -7.125000 0.000000 0.000000 82.774000 -7.364400 47.397300 -44.641900 50.591800 -21.961700 0.000000 0.000000 -10.260700 7.125000 0.000000 0.000000 
5.514600 27.495700 1.444500 131.884000 83.680900 150.486000 -12.538800 -19.894800 -37.703700 6.146000 14.568400 45.564900 -0.455400 -12.447000 0.541100 0.408500 -4.102900 -11.366200 16.105400 22.360400 -20.195500 -1.005000 -6.379200 17.888700 1.540800 -21.354800 -9.367700 -0.031400 -1.144300 3.146000 -0.960000 0.265100 -2.783300 2.575000 0.148400 3.347600 5.327400 -0.340500 -12.896000 2.007200 -0.304000 -4.628600 -86.661200 9.661900 21.252900 47.057800 -51.737700 -23.843800 0.000000 0.000000 8.658500 -7.125000 0.000000 0.000000 82.719300 -7.088200 47.366900 -43.701800 50.116400 -21.237800 0.000000 0.000000 -10.407500 7.125000 0.000000 0.000000 
